<?xml version="1.0"?><!DOCTYPE svg PUBLIC "-//W3C//DTD SVG 1.1//EN" "http://www.w3.org/Graphics/SVG/1.1/DTD/svg11.dtd"><svg class="qc-circuit" width="340" height="404" version="1.1" xmlns="http://www.w3.org/2000/svg"><text class="qc-wire-init" x="0" y="54" dominant-baseline="middle" text-anchor="start">|0&#x027E9;</text><line class="qc-wire" x1="20" x2="340" y1="54" y2="54" stroke="black" stroke-width="1" /><text class="qc-wire-label" x="20" y="38" dominant-baseline="hanging" text-anchor="start" font-size="75%">q0</text><text class="qc-wire-init" x="0" y="128" dominant-baseline="middle" text-anchor="start">|0&#x027E9;</text><line class="qc-wire" x1="20" x2="340" y1="128" y2="128" stroke="black" stroke-width="1" /><text class="qc-wire-label" x="20" y="112" dominant-baseline="hanging" text-anchor="start" font-size="75%">q1</text><text class="qc-wire-init" x="0" y="202" dominant-baseline="middle" text-anchor="start">|0&#x027E9;</text><line class="qc-wire" x1="20" x2="340" y1="202" y2="202" stroke="black" stroke-width="1" /><text class="qc-wire-label" x="20" y="186" dominant-baseline="hanging" text-anchor="start" font-size="75%">q2</text><text class="qc-wire-init" x="0" y="276" dominant-baseline="middle" text-anchor="start">|0&#x027E9;</text><line class="qc-wire" x1="20" x2="340" y1="276" y2="276" stroke="black" stroke-width="1" /><text class="qc-wire-label" x="20" y="260" dominant-baseline="hanging" text-anchor="start" font-size="75%">q3</text><text class="qc-wire-init" x="0" y="350" dominant-baseline="middle" text-anchor="start">0</text><line class="qc-wire-c" x1="20" x2="340" y1="350" y2="350" stroke="silver" stroke-width="1" /><text class="qc-wire-label" x="20" y="334" dominant-baseline="hanging" text-anchor="start" font-size="75%">c</text><g class="qc-gate-group" data-id="RvS09znz6juUb4NTze" data-gate="h"><rect class="qc-gate-box" x="68" y="34" width="40" height="40" stroke="black" fill="white" stroke-width="1" /><text class="qc-gate-label" x="88" y="54" dominant-baseline="middle" text-anchor="middle" fill="black">H</text><text class="qc-gate-params" x="88" y="80" dominant-baseline="hanging" text-anchor="middle" font-size="75%"></text></g><g class="qc-gate-group" data-id="lV2n0LrDGeweJZbYwk" data-gate="cx"><line class="qc-gate-link" x1="156" x2="156" y1="54" y2="128" stroke="black" stroke-width="1" /><circle class="qc-gate-dot" cx="156" cy="54" r="5" stroke="black" fill="black" stroke-width="1" /><ellipse class="qc-gate-not" cx="156" cy="128" rx="16" ry="16" stroke="black" fill="white" stroke-width="1" /><line class="qc-gate-not-line" x1="156" x2="156" y1="112" y2="144" stroke="black" stroke-width="1" /><line class="qc-gate-not-line" x1="140" x2="172" y1="128" y2="128" stroke="black" stroke-width="1" /><text class="qc-gate-params" x="156" y="154" dominant-baseline="hanging" text-anchor="middle" font-size="75%"></text></g><g class="qc-gate-group" data-id="hjGDdSgAY19HFmIfMw" data-gate="cx"><line class="qc-gate-link" x1="224" x2="224" y1="128" y2="202" stroke="black" stroke-width="1" /><circle class="qc-gate-dot" cx="224" cy="128" r="5" stroke="black" fill="black" stroke-width="1" /><ellipse class="qc-gate-not" cx="224" cy="202" rx="16" ry="16" stroke="black" fill="white" stroke-width="1" /><line class="qc-gate-not-line" x1="224" x2="224" y1="186" y2="218" stroke="black" stroke-width="1" /><line class="qc-gate-not-line" x1="208" x2="240" y1="202" y2="202" stroke="black" stroke-width="1" /><text class="qc-gate-params" x="224" y="228" dominant-baseline="hanging" text-anchor="middle" font-size="75%"></text></g><g class="qc-gate-group" data-id="ydXMVDUF8hFAUSIEZU" data-gate="cx"><line class="qc-gate-link" x1="292" x2="292" y1="202" y2="276" stroke="black" stroke-width="1" /><circle class="qc-gate-dot" cx="292" cy="202" r="5" stroke="black" fill="black" stroke-width="1" /><ellipse class="qc-gate-not" cx="292" cy="276" rx="16" ry="16" stroke="black" fill="white" stroke-width="1" /><line class="qc-gate-not-line" x1="292" x2="292" y1="260" y2="292" stroke="black" stroke-width="1" /><line class="qc-gate-not-line" x1="276" x2="308" y1="276" y2="276" stroke="black" stroke-width="1" /><text class="qc-gate-params" x="292" y="302" dominant-baseline="hanging" text-anchor="middle" font-size="75%"></text></g></svg>